<svg width="73" height="15" viewBox="0 0 73 15" fill="none" xmlns="http://www.w3.org/2000/svg">
<path d="M7.54337 0C3.38682 0 0 3.36735 0 7.5C0 11.6327 3.38682 15 7.54337 15C11.6999 15 15.0867 11.6327 15.0867 7.5C15.0867 3.36735 11.6999 0 7.54337 0ZM7.54337 12.6841C4.67194 12.6841 2.32928 10.3616 2.32928 7.5C2.32928 4.64508 4.66524 2.31588 7.54337 2.31588C10.4215 2.31588 12.7575 4.63842 12.7575 7.5C12.7575 10.3549 10.4148 12.6841 7.54337 12.6841Z" fill="#023E84"/>
<path d="M5.01318 6.24224H10.0733L7.54326 2.32254L5.01318 6.24224Z" fill="#E6332A"/>
<path d="M31.9338 8.19216L28.8482 3.66687H26.365V11.3332H28.6407V6.73475L31.7665 11.3332H34.2096V3.66687H31.9338V8.19216Z" fill="#023E84"/>
<path d="M41.2378 3.66687H35.167V5.51026H37.021V11.3332H39.3838V5.51026H41.2378V3.66687Z" fill="#023E84"/>
<path d="M65.1928 8.23209V3.66687H62.83V8.1855C62.83 8.658 62.7363 9.70946 61.478 9.70946C60.2263 9.70946 60.1259 8.658 60.1259 8.1855V3.66687H57.7632V8.23209C57.7632 9.05063 57.9573 11.5462 61.4713 11.5462C64.9987 11.5528 65.1928 9.05729 65.1928 8.23209Z" fill="#023E84"/>
<path d="M56.7992 5.96932C56.7992 5.61661 56.7055 3.6734 53.8809 3.6734H50.387V11.3398H52.7497V8.81093V7.12726V5.35707H53.3253C54.1687 5.35707 54.4364 5.80295 54.4364 6.23551C54.4364 6.66142 54.1955 7.07402 53.4525 7.12061V9.80916L54.5368 11.3398H57.3949L55.0321 8.27189C55.8219 8.01235 56.7992 7.41342 56.7992 5.96932Z" fill="#023E84"/>
<path d="M19.5443 3.66687L16.5457 11.3332H19.0757L20.9766 5.49695L21.9003 8.32526H20.9231L20.3809 10.0023H22.4492L22.8775 11.3332H25.4076L22.409 3.66687H19.5443Z" fill="#023E84"/>
<path d="M43.567 3.66687L40.5684 11.3332H43.0984L44.9993 5.49695L45.923 8.32526H44.9458L44.4036 10.0023H46.4719L46.9002 11.3332H49.4303L46.4317 3.66687H43.567Z" fill="#023E84"/>
<path d="M69.4297 6.4685C69.008 6.38199 68.4324 6.24889 68.4324 5.78971C68.4324 5.51686 68.5998 5.13088 69.3092 5.13088C69.9049 5.13088 70.4337 5.47693 70.8353 5.80302L71.17 6.1291L71.7523 4.22582C71.6854 4.18589 71.6318 4.15927 71.6117 4.15262C71.2302 3.91304 70.3601 3.4472 69.1218 3.4472C67.1473 3.4472 66.1567 4.51863 66.1567 5.75643C66.1567 7.40683 67.4954 7.8394 68.1714 8.02573C69.0616 8.27862 69.7845 8.36513 69.7845 9.06389C69.7845 9.52307 69.3896 9.7094 68.9545 9.7094C68.4592 9.7094 67.9505 9.4898 67.4552 9.15705C67.4552 9.15705 67.1674 8.95075 66.8863 8.71783C66.8796 8.71118 66.8662 8.70452 66.8595 8.69787C66.7993 8.64463 66.739 8.59139 66.6788 8.53815L66.4445 9.30346L66.2437 9.96894L66.063 10.5612C67.1138 11.2866 67.9103 11.5594 68.8943 11.5594C70.8688 11.5594 72.0602 10.5612 72.0602 9.04392C72.0535 7.22715 70.668 6.73469 69.4297 6.4685Z" fill="#023E84"/>
</svg>
