<svg width="231" height="48" viewBox="0 0 231 48" fill="none" xmlns="http://www.w3.org/2000/svg">
<path d="M24.1388 0C10.8378 0 0 10.7755 0 24C0 37.2245 10.8378 48 24.1388 48C37.4397 48 48.2776 37.2245 48.2776 24C48.2776 10.7755 37.4397 0 24.1388 0ZM24.1388 40.5892C14.9502 40.5892 7.45368 33.1571 7.45368 24C7.45368 14.8642 14.9288 7.41083 24.1388 7.41083C33.3488 7.41083 40.8239 14.8429 40.8239 24C40.8239 33.1358 33.3274 40.5892 24.1388 40.5892Z" fill="white"/>
<path d="M16.0425 19.9752H32.235L24.1388 7.43213L16.0425 19.9752Z" fill="#E6332A"/>
<path d="M102.188 26.2148L92.3143 11.7338H84.368V36.2662H91.6503V21.551L101.653 36.2662H109.471V11.7338H102.188V26.2148Z" fill="white"/>
<path d="M131.96 11.7338H112.533V17.6327H118.466V36.2662H126.027V17.6327H131.96V11.7338Z" fill="white"/>
<path d="M208.617 26.3425V11.7338H201.057V26.1934C201.057 27.7054 200.757 31.0701 196.73 31.0701C192.725 31.0701 192.403 27.7054 192.403 26.1934V11.7338H184.843V26.3425C184.843 28.9619 185.464 36.9477 196.709 36.9477C207.996 36.969 208.617 28.9832 208.617 26.3425Z" fill="white"/>
<path d="M181.758 19.102C181.758 17.9733 181.459 11.7551 172.42 11.7551H161.239V36.2875H168.8V28.1952V22.8074V17.1428H170.642C173.341 17.1428 174.198 18.5696 174.198 19.9538C174.198 21.3167 173.427 22.6371 171.049 22.7861V31.3895L174.519 36.2875H183.665L176.104 26.4702C178.631 25.6397 181.758 23.7231 181.758 19.102Z" fill="white"/>
<path d="M62.5423 11.7338L52.9468 36.2662H61.043L67.1259 17.5901L70.0817 26.6407H66.9546L65.2197 32.0071H71.838L73.2088 36.2662H81.305L71.7095 11.7338H62.5423Z" fill="white"/>
<path d="M139.414 11.7338L129.818 36.2662H137.914L143.997 17.5901L146.953 26.6407H143.826L142.091 32.0071H148.709L150.08 36.2662H158.176L148.581 11.7338H139.414Z" fill="white"/>
<path d="M222.175 20.6992C220.826 20.4224 218.984 19.9965 218.984 18.5271C218.984 17.654 219.519 16.4188 221.79 16.4188C223.696 16.4188 225.388 17.5262 226.673 18.5697L227.744 19.6131L229.608 13.5226C229.393 13.3949 229.222 13.3097 229.158 13.2884C227.937 12.5218 225.153 11.0311 221.19 11.0311C214.872 11.0311 211.702 14.4596 211.702 18.4206C211.702 23.7019 215.985 25.0861 218.149 25.6824C220.997 26.4916 223.311 26.7684 223.311 29.0044C223.311 30.4738 222.047 31.0701 220.655 31.0701C219.07 31.0701 217.442 30.3674 215.857 29.3026C215.857 29.3026 214.936 28.6424 214.036 27.8971C214.015 27.8758 213.972 27.8545 213.951 27.8332C213.758 27.6628 213.565 27.4925 213.372 27.3221L212.623 29.7711L211.98 31.9006L211.402 33.7959C214.765 36.1171 217.313 36.9903 220.462 36.9903C226.78 36.9903 230.593 33.7959 230.593 28.9406C230.571 23.1269 226.138 21.551 222.175 20.6992Z" fill="white"/>
</svg>
