<svg width="82" height="12" viewBox="0 0 82 12" fill="none" xmlns="http://www.w3.org/2000/svg">
<path d="M31.6261 5.7198V8.9812L28.4756 5.7198H26.1394V11.1226H27.6629V7.90989L30.8222 11.1226H33.1562V5.7198H31.6261ZM11.514 6.79504H12.7593C13.448 6.79504 13.8256 7.13599 13.8256 7.69169C13.8256 8.43361 13.4776 8.68477 12.4481 8.69535L13.9939 11.1226H16.5158L14.9186 8.83311C15.1646 8.80113 16.2224 8.65698 16.2224 7.25481C16.2224 5.72742 14.6896 5.7198 13.7009 5.7198H9.23784V11.1226H11.514V6.79504ZM22.217 5.7198V8.74898C22.217 9.25966 22.1154 9.61611 21.9029 9.84193C21.7866 9.95128 21.6487 10.035 21.498 10.0876C21.3473 10.1402 21.1872 10.1605 21.0281 10.1472C20.8696 10.1607 20.71 10.1405 20.5599 10.0879C20.4097 10.0353 20.2725 9.95146 20.1571 9.84193C19.9421 9.61611 19.8373 9.25966 19.8373 8.74898V5.7198H17.5298V8.89313C17.5298 9.74624 17.7057 10.1064 18.075 10.4727C18.6516 11.0421 19.744 11.2812 21.0269 11.2812C22.3098 11.2812 23.413 11.0421 23.9884 10.4727C24.3594 10.1064 24.5259 9.74624 24.5259 8.89313V5.7198H22.217ZM38.588 5.7198H34.8776V11.1226H38.5892C41.3042 11.1226 42.566 10.5455 42.566 8.40803C42.566 6.27058 41.3042 5.7198 38.588 5.7198ZM38.342 10.0171H37.1686V6.82358H38.342C39.5688 6.82358 40.1395 7.35148 40.1395 8.42254C40.1395 9.44637 39.5181 10.0176 38.342 10.0176V10.0171ZM54.8374 5.55892C51.8589 5.55892 50.5571 6.63416 50.5571 8.3913C50.5571 10.3401 51.8577 11.2835 54.8374 11.2835C57.7798 11.2835 59.0951 10.3374 59.0951 8.38491C59.0951 6.64695 57.7798 5.55892 54.8374 5.55892ZM54.8273 10.189C53.6581 10.189 53.0702 9.57404 53.0702 8.41566C53.0702 7.24324 53.6416 6.64695 54.8273 6.64695C56.0233 6.64695 56.5852 7.24324 56.5852 8.41566C56.5852 9.64145 56.073 10.189 54.8273 10.189ZM46.2871 6.87671H49.4391L50.161 5.7198H43.9489V11.1226H46.2871V9.36544H48.8629L49.598 8.2009H46.2871V6.87671ZM5.44264 8.52291V10.0641C5.44264 10.0641 4.78165 10.1379 4.46038 10.1379C2.65207 10.1379 2.45749 9.15856 2.45749 8.45723C2.45749 7.35025 3.17899 6.75987 4.63159 6.75987C5.35184 6.74558 6.07174 6.80235 6.78085 6.92935L7.05734 6.98323L7.78524 5.80836C6.62702 5.65866 5.45993 5.58822 4.29212 5.59754C1.35051 5.59754 0 6.52076 0 8.48896C0 10.4643 1.32493 11.2537 4.27883 11.2537C5.4374 11.271 6.59456 11.1661 7.73113 10.9408V8.52291H5.44264ZM64.6777 7.7618C63.6165 7.59453 62.9373 7.59969 62.9373 7.09761C62.9373 6.59554 64.0091 6.57734 64.6853 6.57734C65.2983 6.5954 65.9091 6.66004 66.5123 6.77069L67.1787 5.7166C66.1691 5.59554 65.1531 5.535 64.1363 5.5353C61.695 5.5353 60.1307 5.95792 60.1307 7.13427C60.1307 8.38171 61.4591 8.61147 62.773 8.82376C63.8042 8.98833 64.4824 9.01662 64.4824 9.5032C64.4824 10.0559 63.5754 10.1302 62.6657 10.1302C62.0022 10.1098 61.3419 10.0302 60.6926 9.89261L59.9167 11.1226C61.0332 11.267 62.1587 11.3305 63.2844 11.3125C66.007 11.3125 67.2899 10.8171 67.2899 9.48893C67.2899 8.2565 65.9463 7.95786 64.677 7.76008L64.6777 7.7618ZM73.6093 11.1243H70.6901L74.762 7.07474C75.0414 7.27066 75.3006 7.49398 75.5357 7.74138C75.7916 7.9776 76.0249 8.2371 76.2328 8.51651L73.6093 11.1243Z" fill="#113565"/>
<path d="M72.2636 7.97971C70.7173 6.10891 70.2875 5.29172 69.8942 4.31832C69.6425 3.69915 69.3323 2.48763 69.9726 1.85074C70.5404 1.28766 71.6557 1.48175 72.7797 1.9826C74.068 2.55576 75.5538 3.60149 76.9503 4.90059L81.5656 0.315491V3.2106L77.3444 7.40924C77.3444 7.40924 76.8866 6.93521 76.6509 6.70545C74.1727 4.28167 71.8722 3.10581 71.2988 3.66643C70.5313 4.41573 72.8978 7.1475 72.9814 7.26853L72.2636 7.97971ZM81.5649 11.1243H79.9221C79.7169 10.6203 79.4594 10.1392 79.1539 9.68888C78.8395 9.18789 78.4739 8.72087 78.0632 8.29532L79.1716 7.19572C79.6662 7.78179 80.1209 8.40047 80.5324 9.04757C80.9554 9.69785 81.3021 10.3947 81.5656 11.1243" fill="#113565"/>
</svg>
