<svg width="48" height="48" viewBox="0 0 48 48" fill="none" xmlns="http://www.w3.org/2000/svg">
<circle cx="24" cy="24" r="24" fill="#E6332A"/>
<path d="M33.8746 10.3503C33.665 10.1751 33.3892 10.1061 33.1246 10.1619L25.6928 11.7345C25.4179 10.6933 24.4887 9.92499 23.3873 9.92499C22.0701 9.92499 20.9984 11.0234 20.9984 12.3733V14.2823C16.8339 15.3744 13.7461 19.2531 13.7461 23.8572C13.7461 24.3665 14.1489 24.7794 14.6458 24.7794C15.1427 24.7794 15.5456 24.3665 15.5456 23.8572C15.5456 20.2785 17.8392 17.2392 20.9984 16.2011V18.0364C18.7842 18.9948 17.2265 21.243 17.2265 23.8572V38.2274C17.2265 39.577 18.2976 40.675 19.6142 40.675H27.1602C28.4769 40.675 29.5481 39.577 29.5481 38.2274V23.8572C29.5481 21.243 27.9901 18.9948 25.7759 18.0364V17.4689L33.1246 19.0236C33.1848 19.0365 33.2457 19.0429 33.3063 19.0429C33.5116 19.0429 33.7126 18.9708 33.8746 18.8355C34.0843 18.6605 34.2061 18.3979 34.2061 18.1206V11.0652C34.2061 10.7879 34.0843 10.5253 33.8746 10.3503ZM23.3873 17.5423C23.1884 17.5423 22.992 17.5524 22.7979 17.5714V12.3733C22.7979 12.0404 23.0623 11.7694 23.3873 11.7694C23.7123 11.7694 23.9764 12.0404 23.9764 12.3733V17.5714C23.7826 17.5524 23.586 17.5423 23.3873 17.5423ZM27.1602 38.8305H19.6142C19.2898 38.8305 19.0257 38.56 19.0257 38.2274V35.0755H27.7486V38.2274C27.7486 38.56 27.4845 38.8305 27.1602 38.8305ZM27.7486 33.2312H19.0262V26.3749H27.7486V33.2312ZM27.7486 23.8572V24.5307H19.0257V23.8572C19.0257 21.3922 20.9824 19.3868 23.3873 19.3868C25.7921 19.3868 27.7486 21.3922 27.7486 23.8572ZM32.4066 16.9887L25.7759 15.5857V13.6001L32.4066 12.1971V16.9887Z" fill="white"/>
</svg>
