<svg width="24" height="24" viewBox="0 0 24 24" fill="none" xmlns="http://www.w3.org/2000/svg">
<circle cx="12" cy="12" r="12" fill="black" fill-opacity="0.3"/>
<path d="M12.998 13.8486H11.1318L10.8379 7.04688H13.292L12.998 13.8486ZM10.7695 15.9678C10.7695 15.6305 10.8903 15.3548 11.1318 15.1406C11.3779 14.9219 11.6833 14.8125 12.0479 14.8125C12.4124 14.8125 12.7155 14.9219 12.957 15.1406C13.2031 15.3548 13.3262 15.6305 13.3262 15.9678C13.3262 16.305 13.2031 16.583 12.957 16.8018C12.7155 17.016 12.4124 17.123 12.0479 17.123C11.6833 17.123 11.3779 17.016 11.1318 16.8018C10.8903 16.583 10.7695 16.305 10.7695 15.9678Z" fill="#EBEBEB"/>
</svg>
