<svg width="48" height="48" viewBox="0 0 48 48" fill="none" xmlns="http://www.w3.org/2000/svg">
<circle cx="24" cy="24" r="24" fill="#023E84"/>
<path d="M31.0898 20.8557H27.3997C26.9135 20.3694 26.3576 19.9726 25.7578 19.676V16.2311H26.1947C26.6486 16.2311 27.0806 16.3482 27.4788 16.5791C28.058 16.915 28.7625 17.132 29.2734 17.132C31.212 17.132 32.7891 15.5155 32.7891 13.5285C32.7891 11.5415 31.212 9.92499 29.2734 9.92499C28.7612 9.92499 28.0555 10.1426 27.4758 10.4795C27.0803 10.7094 26.6473 10.8259 26.189 10.8259H20.0532C19.6014 10.8259 19.1563 10.7061 18.7665 10.4795C18.1867 10.1426 17.481 9.92499 16.9688 9.92499C15.0302 9.92499 13.4531 11.5415 13.4531 13.5285C13.4531 15.5155 15.0302 17.132 16.9688 17.132C17.4797 17.132 18.1842 16.915 18.7635 16.5791C19.1561 16.3514 19.6 16.2311 20.0474 16.2311H20.4844V19.676C19.8846 19.9726 19.3287 20.3694 18.8425 20.8557H14.1223C13.7595 19.8071 12.7825 19.0539 11.6367 19.0539H9.87891C9.39352 19.0539 9 19.4572 9 19.9548V30.7653C9 31.2628 9.39352 31.6662 9.87891 31.6662H11.6367C12.7825 31.6662 13.7595 30.913 14.1223 29.8644H18.8425C19.9921 31.0142 21.53 31.6662 23.1211 31.6662C24.7122 31.6662 26.2501 31.0142 27.3997 29.8644H29.332C29.8167 29.8644 30.2109 30.2686 30.2109 30.7653V32.5671C30.2109 33.0646 30.6045 33.468 31.0898 33.468H34.6055H38.1211C38.6065 33.468 39 33.0646 39 32.5671V28.9636C39 24.4929 35.4515 20.8557 31.0898 20.8557ZM12.5156 28.9636C12.5156 29.4603 12.1213 29.8644 11.6367 29.8644H10.7578V20.8557H11.6367C12.1213 20.8557 12.5156 21.2598 12.5156 21.7565V28.9636ZM20.0474 14.4294C19.2973 14.4294 18.5541 14.6305 17.8979 15.0109C17.5087 15.2366 17.1007 15.3303 16.9688 15.3303C15.9995 15.3303 15.2109 14.522 15.2109 13.5285C15.2109 12.535 15.9995 11.7267 16.9688 11.7267C17.1012 11.7267 17.5101 11.8207 17.8996 12.047C18.5533 12.4268 19.298 12.6276 20.0532 12.6276H26.1891C26.9442 12.6276 27.6889 12.4268 28.3427 12.047C28.7321 11.8207 29.141 11.7267 29.2734 11.7267C30.2427 11.7267 31.0312 12.535 31.0312 13.5285C31.0312 14.522 30.2427 15.3303 29.2734 15.3303C29.1415 15.3303 28.7335 15.2366 28.3443 15.0109C27.6882 14.6305 26.9449 14.4294 26.1947 14.4294H24.8789C24.3935 14.4294 24 14.8327 24 15.3303V19.1205C23.7103 19.0765 23.4166 19.0539 23.1211 19.0539C22.8255 19.0539 22.5319 19.0765 22.2422 19.1205V15.3303C22.2422 14.8327 21.8487 14.4294 21.3633 14.4294H20.0474ZM37.2422 31.6662H31.9688V30.7653C31.9688 29.2751 30.7859 28.0627 29.332 28.0627H27.026C26.7769 28.0627 26.5396 28.171 26.3729 28.3606C25.5206 29.3303 24.3657 29.8644 23.1211 29.8644C21.8764 29.8644 20.7216 29.3303 19.8692 28.3606C19.7026 28.171 19.4652 28.0627 19.2162 28.0627H14.2734V22.6574H19.2162C19.4653 22.6574 19.7026 22.5491 19.8693 22.3595C20.7216 21.3898 21.8764 20.8557 23.1211 20.8557C24.3657 20.8557 25.5206 21.3898 26.373 22.3595C26.5396 22.5491 26.777 22.6574 27.026 22.6574H31.0898C34.4822 22.6574 37.2422 25.4864 37.2422 28.9636V31.6662Z" fill="white"/>
<path d="M36.2446 36.3704C35.793 35.5723 35.3474 34.9096 35.3286 34.8818C35.1645 34.6383 34.8942 34.493 34.6055 34.493C34.3167 34.493 34.0464 34.6383 33.8823 34.8818C33.8636 34.9096 33.4179 35.5723 32.9663 36.3704C32.0722 37.9503 31.9688 38.6263 31.9688 38.9973C31.9688 40.4876 33.1516 41.7 34.6055 41.7C36.0594 41.7 37.2422 40.4876 37.2422 38.9973C37.2422 38.6263 37.1388 37.9503 36.2446 36.3704ZM34.6055 39.8982C34.1208 39.8982 33.7266 39.4941 33.7266 38.9984C33.7337 38.723 34.0993 37.9378 34.6056 37.0635C35.1115 37.9369 35.4769 38.7217 35.4844 38.9981C35.484 39.4944 35.0899 39.8982 34.6055 39.8982Z" fill="white"/>
</svg>
