<svg width="180" height="180" fill="none" xmlns="http://www.w3.org/2000/svg"><path d="M149.394 22.395C132.24 7.296 110.18-.639 87.274.04 64.266.725 42.627 10.07 26.342 26.353 12.358 40.337 3.54 58.054.84 77.59c-2.612 18.898.923 38.5 9.955 55.196a2.637 2.637 0 104.64-2.509c-8.503-15.716-11.83-34.17-9.371-51.965 2.541-18.388 10.844-35.066 24.009-48.23 15.33-15.329 35.7-24.126 57.36-24.77 21.565-.644 42.331 6.83 58.478 21.041a2.636 2.636 0 003.721-.237 2.635 2.635 0 00-.237-3.721z" fill="#000" fill-opacity=".5"/><path d="M157.603 30.603a2.637 2.637 0 00-3.959 3.484C167.856 50.233 175.329 71 174.688 92.562c-.645 21.657-9.443 42.027-24.773 57.356-10.35 10.349-23.232 17.867-37.251 21.742a85.348 85.348 0 01-39.868 1.305 8.221 8.221 0 00-1.06-5.448 8.277 8.277 0 003.972-7.065c0-1.536-.42-2.975-1.153-4.209a8.277 8.277 0 003.408-10.065h23.295c4.562 0 8.274-3.712 8.274-8.274 0-4.561-3.712-8.273-8.274-8.273H50.522a5.826 5.826 0 01-5.82-5.819v-16.911c0-4.562-3.712-8.273-8.274-8.273-4.562 0-8.274 3.711-8.274 8.273v13.798a14.33 14.33 0 01-3.128 8.917l-2.627 3.284a25.271 25.271 0 00-5.52 15.732v11.82c0 10.779 8.77 19.548 19.55 19.548h28.186a8.244 8.244 0 005.61-2.198 90.408 90.408 0 0019.786 2.193 90.4 90.4 0 0024.058-3.252c14.897-4.117 28.582-12.103 39.575-23.096 16.285-16.283 25.631-37.921 26.316-60.928.681-22.903-7.259-44.963-22.357-62.116zm-90.17 132.849h-2.818a2.636 2.636 0 100 5.273c1.654 0 3 1.346 3 3a3.005 3.005 0 01-3 3.001H36.428c-7.871 0-14.275-6.403-14.275-14.275v-11.819c0-4.505 1.55-8.922 4.363-12.439l2.628-3.284a19.617 19.617 0 004.284-12.211v-13.797a3.004 3.004 0 013-3.001c1.655 0 3 1.347 3 3.001v16.91c0 6.117 4.977 11.093 11.094 11.093h50.736c1.654 0 3 1.346 3 3s-1.346 3-3 3H70.252a2.637 2.637 0 000 5.273c1.655 0 3 1.347 3 3.001s-1.345 3-3 3h-2.819a2.637 2.637 0 100 5.273c1.655 0 3.001 1.346 3.001 3a3.004 3.004 0 01-3 3.001zM62.975 60.687a2.64 2.64 0 00-2.882 2.365l-.415 4.208a4.383 4.383 0 01-1.59 2.976 4.38 4.38 0 01-3.23.98 4.415 4.415 0 01-3.957-4.821l.553-5.61a4.415 4.415 0 014.82-3.956 2.637 2.637 0 10.517-5.248c-5.314-.52-10.062 3.374-10.586 8.687l-.552 5.61c-.524 5.313 3.374 10.062 8.687 10.585a9.612 9.612 0 007.093-2.15c2-1.641 3.24-3.963 3.494-6.537l.414-4.207a2.637 2.637 0 00-2.366-2.883z" fill="#000" fill-opacity=".5"/><path d="M121.883 66.49A2.637 2.637 0 00119 68.855l-.415 4.208a4.415 4.415 0 01-4.821 3.956 4.415 4.415 0 01-3.956-4.821l.553-5.61a4.384 4.384 0 011.591-2.976 4.373 4.373 0 013.23-.98 2.638 2.638 0 00.517-5.248 9.617 9.617 0 00-7.092 2.151 9.615 9.615 0 00-3.494 6.536l-.553 5.61a9.616 9.616 0 002.151 7.092 9.62 9.62 0 006.537 3.493 9.61 9.61 0 007.092-2.15 9.623 9.623 0 003.494-6.536l.414-4.208a2.636 2.636 0 00-2.365-2.882zM105.265 113.002c-.835-.422-20.713-10.328-43.517-10.85a2.636 2.636 0 10-.12 5.272c21.577.494 41.067 10.188 41.26 10.286a2.635 2.635 0 003.542-1.166 2.636 2.636 0 00-1.165-3.542zM69.08 42.835c-.629-.504-15.62-12.223-33.831-3.118a2.636 2.636 0 102.358 4.717c15.12-7.56 27.632 2.087 28.183 2.522a2.632 2.632 0 003.702-.415 2.637 2.637 0 00-.411-3.706zM137.668 44.377a2.639 2.639 0 00-3.103-2.069l-28.187 5.637a2.636 2.636 0 101.035 5.171l28.186-5.637a2.637 2.637 0 002.069-3.102z" fill="#000" fill-opacity=".5"/></svg>