<svg width="38" height="16" viewBox="0 0 38 16" fill="none" xmlns="http://www.w3.org/2000/svg">
<path d="M36.7119 5.70849C36.1546 4.96254 35.1201 4.30412 33.4312 4.30412C31.7423 4.30412 30.4738 4.96254 29.6276 5.70849C28.3877 6.78386 27.8727 8.07872 27.4724 10.1415C27.0669 12.2254 27.0783 13.5207 27.9013 14.5956C28.4581 15.3416 29.4701 16 31.1591 16C32.848 16 34.138 15.3416 34.9856 14.5956C36.225 13.5207 36.7396 12.2254 37.1447 10.1415C37.5453 8.07872 37.5343 6.78386 36.7119 5.70849ZM34.2933 10.1411C34.0632 11.3255 33.8011 12.3349 33.0934 12.9278C32.7002 13.2568 32.2274 13.4318 31.6574 13.4318C31.0869 13.4318 30.7043 13.2568 30.4391 12.9278C29.9619 12.3349 30.0925 11.3255 30.3225 10.1411C30.5525 8.95573 30.8103 7.96876 31.5175 7.37588C31.9112 7.04689 32.3615 6.87139 32.9316 6.87139C33.502 6.87139 33.9067 7.04689 34.1714 7.37588C34.6495 7.96876 34.5237 8.95573 34.2933 10.1411ZM24.1667 12.4233L26.533 0.244965H23.6816L21.2814 12.5992C20.9656 14.2226 21.6329 15.8689 23.9802 15.8689H25.6032L26.072 13.4552H24.9751C24.2511 13.4547 24.0343 13.1033 24.1667 12.4233ZM13.1684 4.43564L10.3135 11.501L9.33926 4.43564H7.10978L3.41217 11.501L2.94244 4.43564H0L1.2038 15.8685H3.69674L7.48144 8.69315L8.47809 15.8685H10.971L15.0759 6.84721L15.9631 6.84676C16.687 6.84368 16.9052 7.19379 16.7763 7.8742L15.2395 15.8755H18.0905L19.6607 7.68595C19.969 6.06079 19.2947 4.41803 16.9478 4.42859L13.1684 4.43564Z" fill="#009C82"/>
<path d="M18.8939 3.461C19.8492 3.461 20.6242 2.68603 20.6242 1.73029C20.6242 0.774983 19.8492 0 18.8939 0C17.9391 0 17.1646 0.774543 17.1646 1.73029C17.1646 2.68603 17.9391 3.461 18.8939 3.461Z" fill="#009C82"/>
</svg>
